<svg xmlns="http://www.w3.org/2000/svg" width="960" height="520" viewBox="0 0 960 520" fill="none">
  <rect width="960" height="520" fill="#0E1726"/>
  <rect x="28" y="26" width="904" height="468" rx="26" fill="#162538" stroke="#28445F"/>
  <text x="56" y="72" fill="#F3F6FB" font-family="Arial, sans-serif" font-size="24" font-weight="700">Surge // Breakout Pressure Board</text>
  <text x="56" y="98" fill="#8BA5BC" font-family="Arial, sans-serif" font-size="13">continuation over raw volume, with depth-aware flow filters</text>

  <rect x="56" y="126" width="500" height="170" rx="18" fill="#102031" stroke="#264860"/>
  <text x="76" y="154" fill="#DDE7F0" font-family="Arial, sans-serif" font-size="15" font-weight="700">Composite Pressure Wave</text>
  <line x1="80" y1="258" x2="530" y2="258" stroke="#38546A" stroke-width="2"/>
  <line x1="80" y1="220" x2="530" y2="220" stroke="#2B5E68" stroke-width="2" stroke-dasharray="6 6"/>
  <path d="M84 238 L128 232 L172 220 L216 210 L260 186 L304 174 L348 156 L392 146 L436 124 L480 116 L528 104" stroke="#46D9CC" stroke-width="5" stroke-linecap="round" stroke-linejoin="round"/>
  <circle cx="528" cy="104" r="6" fill="#FFC857"/>
  <text x="540" y="108" fill="#FFC857" font-family="Arial, sans-serif" font-size="12" font-weight="700">score 0.84</text>

  <rect x="580" y="126" width="304" height="170" rx="18" fill="#102031" stroke="#264860"/>
  <text x="600" y="154" fill="#DDE7F0" font-family="Arial, sans-serif" font-size="15" font-weight="700">Flow Components</text>
  <text x="600" y="186" fill="#8EB6D5" font-family="Arial, sans-serif" font-size="12">spike ratio</text>
  <rect x="700" y="174" width="90" height="16" rx="8" fill="#1F3850"/><rect x="700" y="174" width="72" height="16" rx="8" fill="#46D9CC"/>
  <text x="802" y="187" fill="#46D9CC" font-family="Arial, sans-serif" font-size="12">0.92</text>
  <text x="600" y="214" fill="#8EB6D5" font-family="Arial, sans-serif" font-size="12">buyer breadth</text>
  <rect x="700" y="202" width="90" height="16" rx="8" fill="#1F3850"/><rect x="700" y="202" width="66" height="16" rx="8" fill="#66D39E"/>
  <text x="802" y="215" fill="#66D39E" font-family="Arial, sans-serif" font-size="12">34%</text>
  <text x="600" y="242" fill="#8EB6D5" font-family="Arial, sans-serif" font-size="12">liq delta</text>
  <rect x="700" y="230" width="90" height="16" rx="8" fill="#1F3850"/><rect x="700" y="230" width="52" height="16" rx="8" fill="#8EC9FF"/>
  <text x="802" y="243" fill="#8EC9FF" font-family="Arial, sans-serif" font-size="12">+10%</text>
  <text x="600" y="270" fill="#8EB6D5" font-family="Arial, sans-serif" font-size="12">refill ratio</text>
  <rect x="700" y="258" width="90" height="16" rx="8" fill="#1F3850"/><rect x="700" y="258" width="64" height="16" rx="8" fill="#FFC857"/>
  <text x="802" y="271" fill="#FFC857" font-family="Arial, sans-serif" font-size="12">0.71</text>

  <rect x="56" y="320" width="258" height="126" rx="18" fill="#102031" stroke="#264860"/>
  <text x="76" y="348" fill="#DDE7F0" font-family="Arial, sans-serif" font-size="15" font-weight="700">Breadth vs Depth</text>
  <rect x="76" y="368" width="72" height="56" rx="12" fill="#1D3550"/>
  <text x="92" y="388" fill="#78A6C8" font-family="Arial, sans-serif" font-size="11">buyers</text>
  <text x="95" y="412" fill="#F3F6FB" font-family="Arial, sans-serif" font-size="24" font-weight="700">34%</text>
  <rect x="156" y="368" width="72" height="56" rx="12" fill="#1D3550"/>
  <text x="172" y="388" fill="#78A6C8" font-family="Arial, sans-serif" font-size="11">depth</text>
  <text x="172" y="412" fill="#F3F6FB" font-family="Arial, sans-serif" font-size="24" font-weight="700">$182k</text>

  <rect x="338" y="320" width="546" height="126" rx="18" fill="#102031" stroke="#264860"/>
  <text x="358" y="348" fill="#DDE7F0" font-family="Arial, sans-serif" font-size="15" font-weight="700">Cycle Log</text>
  <text x="358" y="380" fill="#46D9CC" font-family="Courier New, monospace" font-size="13">09:14 BONK flagged as organic breakout after breadth held above 30%</text>
  <text x="358" y="406" fill="#FFC857" font-family="Courier New, monospace" font-size="13">09:14 WIF downgraded to exhaustion risk when refill ratio slipped to 0.41</text>
  <text x="358" y="432" fill="#8EC9FF" font-family="Courier New, monospace" font-size="13">09:15 SOL stayed on watch while liquidity improved but breadth was still muted</text>
</svg>
